<?xml version="1.0" standalone="no"?>
<!DOCTYPE svg PUBLIC "-//W3C//DTD SVG 20010904//EN"
 "http://www.w3.org/TR/2001/REC-SVG-20010904/DTD/svg10.dtd">
<svg version="1.0" xmlns="http://www.w3.org/2000/svg"
 width="128.000000pt" height="128.000000pt" viewBox="0 0 128.000000 128.000000"
 preserveAspectRatio="xMidYMid meet">
<metadata>
Created by potrace 1.15, written by Peter Selinger 2001-2017
</metadata>
<g transform="translate(0.000000,128.000000) scale(0.100000,-0.100000)"
fill="#000000" stroke="none">
<path d="M455 1256 c-90 -29 -136 -53 -212 -111 -103 -76 -193 -215 -229 -347
-19 -72 -18 -245 2 -321 56 -217 244 -405 461 -461 80 -21 246 -21 326 0 220
57 404 241 461 461 21 80 21 246 0 326 -57 220 -241 403 -466 463 -86 23 -259
18 -343 -10z m359 -125 c142 -50 265 -169 319 -309 26 -64 23 -72 -23 -72
l-40 0 0 -110 0 -110 40 0 c47 0 49 -6 19 -82 -29 -76 -98 -165 -171 -221
-104 -78 -221 -113 -353 -104 -191 13 -349 119 -436 291 -51 102 -51 116 1
116 l40 0 0 110 0 110 -40 0 c-51 0 -51 12 -5 108 71 149 224 266 385 296 57
10 206 -3 264 -23z"/>
<path d="M590 640 l0 -370 50 0 50 0 0 370 0 370 -50 0 -50 0 0 -370z"/>
<path d="M430 640 l0 -300 50 0 50 0 0 300 0 300 -50 0 -50 0 0 -300z"/>
<path d="M750 640 l0 -300 50 0 50 0 0 300 0 300 -50 0 -50 0 0 -300z"/>
<path d="M270 640 l0 -200 50 0 50 0 0 200 0 200 -50 0 -50 0 0 -200z"/>
<path d="M910 640 l0 -200 50 0 50 0 0 200 0 200 -50 0 -50 0 0 -200z"/>
</g>
</svg>
